<svg width="771" height="179" viewBox="0 0 771 179" fill="none" xmlns="http://www.w3.org/2000/svg">
<path d="M0.46 177L24.38 2.19999H49.22L73.37 177H50.14L46.69 145.49H26.91L23.46 177H0.46ZM28.29 124.33H45.31L37.26 35.55H36.57L28.29 124.33ZM105.45 178.61C86.1296 178.61 74.1696 170.56 74.1696 141.12V116.28H96.9396V143.65C96.9396 149.17 97.1696 156.3 105.68 156.3C113.73 156.3 114.19 149.63 114.19 143.65V122.03C114.19 114.67 111.89 106.16 104.76 100.64L92.5696 91.21C87.9696 87.07 84.0596 83.39 81.0696 78.56C76.2396 71.2 74.6296 62.23 74.6296 47.97V36.47C74.6296 7.48999 86.5896 0.359998 105.22 0.359998C123.85 0.359998 136.73 7.25999 136.73 36.93V62H113.96V36.24C113.96 31.41 113.96 22.21 105.45 22.21C97.3996 22.21 97.3996 30.49 97.3996 36.24V55.56C97.3996 59.7 97.8596 63.61 100.85 67.75C103.84 72.12 108.67 76.26 113.96 80.86L127.3 91.9C136.04 99.03 136.96 108 136.96 124.79V141.12C136.96 166.65 127.99 178.61 105.45 178.61ZM143.628 177V2.19999H166.628V177H143.628ZM175.522 177V2.19999H198.522L215.542 105.7H216.232L233.252 2.19999H256.482V177H235.322V73.04H234.862L221.982 177H210.022L197.142 73.04H196.682V177H175.522ZM295.271 178.61C275.951 178.61 263.991 170.79 263.991 141.12V37.16C263.991 7.48999 275.951 0.359998 295.271 0.359998C314.361 0.359998 326.781 7.25999 326.781 37.16V141.12C326.781 171.02 314.361 178.61 295.271 178.61ZM286.761 143.42C286.761 152.16 289.291 156.3 295.501 156.3C301.481 156.3 304.241 152.16 304.241 143.42V36.01C304.241 22.67 301.481 18.99 295.501 18.99C289.291 18.99 286.761 22.67 286.761 36.01V143.42ZM352.77 177L328.39 2.19999H351.39C355.76 44.52 360.13 87.07 364.5 143.65H365.19C369.33 87.07 373.93 44.52 378.07 2.19999H401.3L376.46 177H352.77Z" fill="#F37021"/>
<path d="M396.966 177V150.32H418.126V177H396.966ZM457.242 178.61C437.692 178.61 425.732 168.49 425.732 141.12V123.64H434.702V143.65C434.702 148.94 434.932 169.87 457.472 169.87C479.092 169.87 479.322 150.09 479.322 143.65V125.71C479.322 117.66 478.862 104.09 466.212 96.5L446.892 84.31C441.372 80.86 437.462 77.64 434.702 73.73C427.572 64.99 427.342 55.33 427.342 42.68V35.09C427.342 7.71999 440.452 0.359998 456.552 0.359998C472.422 0.359998 487.372 7.25999 487.372 36.93V54.64H478.172V36.24C478.172 30.72 478.172 8.87 456.552 8.87C436.312 8.87 436.312 27.96 436.312 36.47V47.05C436.312 53.95 436.312 61.31 442.292 68.44C445.052 72.35 449.652 75.8 455.402 79.71L475.642 92.36C488.292 100.41 488.522 114.21 488.522 126.17V141.12C488.522 155.38 485.992 178.61 457.242 178.61ZM501.298 2.19999H531.658C550.978 2.19999 564.088 12.55 564.088 32.79V70.28C564.088 87.76 552.358 96.96 532.348 96.96H510.268V177H501.298V2.19999ZM510.268 88.68H531.428C548.908 88.68 554.888 80.63 554.888 70.74V34.86C554.888 13.24 540.168 10.48 527.518 10.48H510.268V88.68ZM577.44 177V2.19999H626.66V10.48H586.64V80.17H622.98V88.45H586.64V168.72H629.19V177H577.44ZM667.755 178.61C649.355 178.61 636.475 169.87 636.475 140.89V37.39C636.475 7.48999 649.355 0.359998 667.755 0.359998C685.465 0.359998 699.265 8.40999 699.265 37.39V59.47H690.065V36.7C690.065 17.84 682.705 7.95 667.295 7.95C653.035 7.95 645.445 16.23 645.445 34.86V141.12C645.445 149.4 645.675 169.87 668.215 169.87C682.705 169.87 690.065 161.59 690.065 142.73V118.58H699.265V140.89C699.265 171.02 685.465 178.61 667.755 178.61ZM739.351 178.61C719.801 178.61 707.841 168.49 707.841 141.12V123.64H716.811V143.65C716.811 148.94 717.041 169.87 739.581 169.87C761.201 169.87 761.431 150.09 761.431 143.65V125.71C761.431 117.66 760.971 104.09 748.321 96.5L729.001 84.31C723.481 80.86 719.571 77.64 716.811 73.73C709.681 64.99 709.451 55.33 709.451 42.68V35.09C709.451 7.71999 722.561 0.359998 738.661 0.359998C754.531 0.359998 769.481 7.25999 769.481 36.93V54.64H760.281V36.24C760.281 30.72 760.281 8.87 738.661 8.87C718.421 8.87 718.421 27.96 718.421 36.47V47.05C718.421 53.95 718.421 61.31 724.401 68.44C727.161 72.35 731.761 75.8 737.511 79.71L757.751 92.36C770.401 100.41 770.631 114.21 770.631 126.17V141.12C770.631 155.38 768.101 178.61 739.351 178.61Z" fill="white"/>
</svg>
